<svg width="65" height="141" viewBox="0 0 65 141" fill="none" xmlns="http://www.w3.org/2000/svg">
<g clip-path="url(#clip0)">
<g filter="url(#filter0_d)">
<path d="M6 133H53C55.2091 133 57 131.209 57 129L57 12C57 9.791 55.2091 8 53 8H6C3.7909 8 2 9.791 2 12L2 129C2 131.209 3.7909 133 6 133Z" fill="white"/>
</g>
<path d="M41.3708 72.4868H21.9687L26.2115 76.9868C26.7861 77.5962 26.7861 78.5806 26.2115 79.19C25.9363 79.4826 25.5626 79.647 25.1729 79.647C24.7832 79.647 24.4095 79.4826 24.1343 79.19L17.3722 72.0181C16.7977 71.4087 16.7977 70.4243 17.3722 69.815L24.1343 62.6431C24.7088 62.0337 25.637 62.0337 26.2115 62.6431C26.7861 63.2525 26.7861 64.2368 26.2115 64.8462L21.9687 69.3618H41.3708C42.1811 69.3618 42.844 70.065 42.844 70.9243C42.844 71.7837 42.1811 72.4868 41.3708 72.4868Z" fill="#5F5F5F"/>
</g>
<defs>
<filter id="filter0_d" x="-6" y="0" width="71" height="141" filterUnits="userSpaceOnUse" color-interpolation-filters="sRGB">
<feFlood flood-opacity="0" result="BackgroundImageFix"/>
<feColorMatrix in="SourceAlpha" type="matrix" values="0 0 0 0 0 0 0 0 0 0 0 0 0 0 0 0 0 0 127 0"/>
<feOffset/>
<feGaussianBlur stdDeviation="4"/>
<feColorMatrix type="matrix" values="0 0 0 0 0 0 0 0 0 0 0 0 0 0 0 0 0 0 0.5 0"/>
<feBlend mode="normal" in2="BackgroundImageFix" result="effect1_dropShadow"/>
<feBlend mode="normal" in="SourceGraphic" in2="effect1_dropShadow" result="shape"/>
</filter>
<clipPath id="clip0">
<rect width="65" height="141" fill="white" transform="translate(65 141) rotate(-180)"/>
</clipPath>
</defs>
</svg>